<?xml version="1.0" encoding="us-ascii" standalone="no"?><svg xmlns="http://www.w3.org/2000/svg" xmlns:xlink="http://www.w3.org/1999/xlink" contentStyleType="text/css" height="507px" preserveAspectRatio="none" style="width:529px;height:507px;background:#FFFFFF;" version="1.1" viewBox="0 0 529 507" width="529px" zoomAndPan="magnify"><defs/><g><!--class Utilisateur--><g id="elem_Utilisateur"><rect codeLine="1" fill="#F1F1F1" height="113.1875" id="Utilisateur" rx="2.5" ry="2.5" style="stroke:#181818;stroke-width:0.5;" width="162" x="80.5" y="7"/><ellipse cx="123.4" cy="23" fill="#ADD1B2" rx="11" ry="11" style="stroke:#181818;stroke-width:1.0;"/><path d="M126.3688,28.6406 Q125.7906,28.9375 125.15,29.0781 Q124.5094,29.2344 123.8063,29.2344 Q121.3063,29.2344 119.9781,27.5938 Q118.6656,25.9375 118.6656,22.8125 Q118.6656,19.6875 119.9781,18.0313 Q121.3063,16.375 123.8063,16.375 Q124.5094,16.375 125.15,16.5313 Q125.8063,16.6875 126.3688,16.9844 L126.3688,19.7031 Q125.7438,19.125 125.15,18.8594 Q124.5563,18.5781 123.9313,18.5781 Q122.5875,18.5781 121.9,19.6563 Q121.2125,20.7188 121.2125,22.8125 Q121.2125,24.9063 121.9,25.9844 Q122.5875,27.0469 123.9313,27.0469 Q124.5563,27.0469 125.15,26.7813 Q125.7438,26.5 126.3688,25.9219 L126.3688,28.6406 Z " fill="#000000"/><text fill="#000000" font-family="sans-serif" font-size="14" lengthAdjust="spacing" textLength="68" x="143.6" y="27.8467">Utilisateur</text><line style="stroke:#181818;stroke-width:0.5;" x1="81.5" x2="241.5" y1="39" y2="39"/><ellipse cx="91.5" cy="52.6484" fill="none" rx="3" ry="3" style="stroke:#038048;stroke-width:1.0;"/><text fill="#000000" font-family="sans-serif" font-size="14" lengthAdjust="spacing" textLength="40" x="100.5" y="55.9951">ID: int</text><ellipse cx="91.5" cy="68.9453" fill="none" rx="3" ry="3" style="stroke:#038048;stroke-width:1.0;"/><text fill="#000000" font-family="sans-serif" font-size="14" lengthAdjust="spacing" textLength="80" x="100.5" y="72.292">Nom: string</text><ellipse cx="91.5" cy="85.2422" fill="none" rx="3" ry="3" style="stroke:#038048;stroke-width:1.0;"/><text fill="#000000" font-family="sans-serif" font-size="14" lengthAdjust="spacing" textLength="84" x="100.5" y="88.5889">Email: string</text><ellipse cx="91.5" cy="101.5391" fill="none" rx="3" ry="3" style="stroke:#038048;stroke-width:1.0;"/><text fill="#000000" font-family="sans-serif" font-size="14" lengthAdjust="spacing" textLength="136" x="100.5" y="104.8857">MotDePasse: string</text><line style="stroke:#181818;stroke-width:0.5;" x1="81.5" x2="241.5" y1="112.1875" y2="112.1875"/></g><!--class Produit--><g id="elem_Produit"><rect codeLine="8" fill="#F1F1F1" height="113.1875" id="Produit" rx="2.5" ry="2.5" style="stroke:#181818;stroke-width:0.5;" width="153" x="270" y="197.18"/><ellipse cx="317.75" cy="213.18" fill="#ADD1B2" rx="11" ry="11" style="stroke:#181818;stroke-width:1.0;"/><path d="M320.7188,218.8206 Q320.1406,219.1175 319.5,219.2581 Q318.8594,219.4144 318.1563,219.4144 Q315.6563,219.4144 314.3281,217.7738 Q313.0156,216.1175 313.0156,212.9925 Q313.0156,209.8675 314.3281,208.2113 Q315.6563,206.555 318.1563,206.555 Q318.8594,206.555 319.5,206.7113 Q320.1563,206.8675 320.7188,207.1644 L320.7188,209.8831 Q320.0938,209.305 319.5,209.0394 Q318.9063,208.7581 318.2813,208.7581 Q316.9375,208.7581 316.25,209.8363 Q315.5625,210.8988 315.5625,212.9925 Q315.5625,215.0863 316.25,216.1644 Q316.9375,217.2269 318.2813,217.2269 Q318.9063,217.2269 319.5,216.9613 Q320.0938,216.68 320.7188,216.1019 L320.7188,218.8206 Z " fill="#000000"/><text fill="#000000" font-family="sans-serif" font-size="14" lengthAdjust="spacing" textLength="49" x="338.25" y="218.0267">Produit</text><line style="stroke:#181818;stroke-width:0.5;" x1="271" x2="422" y1="229.18" y2="229.18"/><ellipse cx="281" cy="242.8284" fill="none" rx="3" ry="3" style="stroke:#038048;stroke-width:1.0;"/><text fill="#000000" font-family="sans-serif" font-size="14" lengthAdjust="spacing" textLength="40" x="290" y="246.1751">ID: int</text><ellipse cx="281" cy="259.1253" fill="none" rx="3" ry="3" style="stroke:#038048;stroke-width:1.0;"/><text fill="#000000" font-family="sans-serif" font-size="14" lengthAdjust="spacing" textLength="80" x="290" y="262.472">Nom: string</text><ellipse cx="281" cy="275.4222" fill="none" rx="3" ry="3" style="stroke:#038048;stroke-width:1.0;"/><text fill="#000000" font-family="sans-serif" font-size="14" lengthAdjust="spacing" textLength="127" x="290" y="278.7689">Description: string</text><ellipse cx="281" cy="291.7191" fill="none" rx="3" ry="3" style="stroke:#038048;stroke-width:1.0;"/><text fill="#000000" font-family="sans-serif" font-size="14" lengthAdjust="spacing" textLength="62" x="290" y="295.0657">Prix: float</text><line style="stroke:#181818;stroke-width:0.5;" x1="271" x2="422" y1="302.3675" y2="302.3675"/></g><!--class Commande--><g id="elem_Commande"><rect codeLine="15" fill="#F1F1F1" height="96.8906" id="Commande" rx="2.5" ry="2.5" style="stroke:#181818;stroke-width:0.5;" width="134" x="94.5" y="205.33"/><ellipse cx="119.4" cy="221.33" fill="#ADD1B2" rx="11" ry="11" style="stroke:#181818;stroke-width:1.0;"/><path d="M122.3688,226.9706 Q121.7906,227.2675 121.15,227.4081 Q120.5094,227.5644 119.8063,227.5644 Q117.3063,227.5644 115.9781,225.9237 Q114.6656,224.2675 114.6656,221.1425 Q114.6656,218.0175 115.9781,216.3612 Q117.3063,214.705 119.8063,214.705 Q120.5094,214.705 121.15,214.8612 Q121.8063,215.0175 122.3688,215.3144 L122.3688,218.0331 Q121.7438,217.455 121.15,217.1894 Q120.5563,216.9081 119.9313,216.9081 Q118.5875,216.9081 117.9,217.9862 Q117.2125,219.0487 117.2125,221.1425 Q117.2125,223.2362 117.9,224.3144 Q118.5875,225.3769 119.9313,225.3769 Q120.5563,225.3769 121.15,225.1112 Q121.7438,224.83 122.3688,224.2519 L122.3688,226.9706 Z " fill="#000000"/><text fill="#000000" font-family="sans-serif" font-size="14" lengthAdjust="spacing" textLength="80" x="135.6" y="226.1767">Commande</text><line style="stroke:#181818;stroke-width:0.5;" x1="95.5" x2="227.5" y1="237.33" y2="237.33"/><ellipse cx="105.5" cy="250.9784" fill="none" rx="3" ry="3" style="stroke:#038048;stroke-width:1.0;"/><text fill="#000000" font-family="sans-serif" font-size="14" lengthAdjust="spacing" textLength="40" x="114.5" y="254.3251">ID: int</text><ellipse cx="105.5" cy="267.2753" fill="none" rx="3" ry="3" style="stroke:#038048;stroke-width:1.0;"/><text fill="#000000" font-family="sans-serif" font-size="14" lengthAdjust="spacing" textLength="75" x="114.5" y="270.622">Date: Date</text><ellipse cx="105.5" cy="283.5722" fill="none" rx="3" ry="3" style="stroke:#038048;stroke-width:1.0;"/><text fill="#000000" font-family="sans-serif" font-size="14" lengthAdjust="spacing" textLength="108" x="114.5" y="286.9189">UtilisateurID: int</text><line style="stroke:#181818;stroke-width:0.5;" x1="95.5" x2="227.5" y1="294.2206" y2="294.2206"/></g><!--class D?tailCommande--><g id="elem_D&#233;tailCommande"><rect codeLine="21" fill="#F1F1F1" height="96.8906" id="D&#233;tailCommande" rx="2.5" ry="2.5" style="stroke:#181818;stroke-width:0.5;" width="151" x="205" y="395.52"/><ellipse cx="220" cy="411.52" fill="#ADD1B2" rx="11" ry="11" style="stroke:#181818;stroke-width:1.0;"/><path d="M222.9688,417.1606 Q222.3906,417.4575 221.75,417.5981 Q221.1094,417.7544 220.4063,417.7544 Q217.9063,417.7544 216.5781,416.1138 Q215.2656,414.4575 215.2656,411.3325 Q215.2656,408.2075 216.5781,406.5513 Q217.9063,404.895 220.4063,404.895 Q221.1094,404.895 221.75,405.0513 Q222.4063,405.2075 222.9688,405.5044 L222.9688,408.2231 Q222.3438,407.645 221.75,407.3794 Q221.1563,407.0981 220.5313,407.0981 Q219.1875,407.0981 218.5,408.1763 Q217.8125,409.2388 217.8125,411.3325 Q217.8125,413.4263 218.5,414.5044 Q219.1875,415.5669 220.5313,415.5669 Q221.1563,415.5669 221.75,415.3013 Q222.3438,415.02 222.9688,414.4419 L222.9688,417.1606 Z " fill="#000000"/><text fill="#000000" font-family="sans-serif" font-size="14" lengthAdjust="spacing" textLength="119" x="234" y="416.3667">D&#233;tailCommande</text><line style="stroke:#181818;stroke-width:0.5;" x1="206" x2="355" y1="427.52" y2="427.52"/><ellipse cx="216" cy="441.1684" fill="none" rx="3" ry="3" style="stroke:#038048;stroke-width:1.0;"/><text fill="#000000" font-family="sans-serif" font-size="14" lengthAdjust="spacing" textLength="120" x="225" y="444.5151">CommandeID: int</text><ellipse cx="216" cy="457.4653" fill="none" rx="3" ry="3" style="stroke:#038048;stroke-width:1.0;"/><text fill="#000000" font-family="sans-serif" font-size="14" lengthAdjust="spacing" textLength="89" x="225" y="460.812">ProduitID: int</text><ellipse cx="216" cy="473.7622" fill="none" rx="3" ry="3" style="stroke:#038048;stroke-width:1.0;"/><text fill="#000000" font-family="sans-serif" font-size="14" lengthAdjust="spacing" textLength="85" x="225" y="477.1089">Quantit&#233;: int</text><line style="stroke:#181818;stroke-width:0.5;" x1="206" x2="355" y1="484.4106" y2="484.4106"/></g><!--class Facture--><g id="elem_Facture"><rect codeLine="27" fill="#F1F1F1" height="113.1875" id="Facture" rx="2.5" ry="2.5" style="stroke:#181818;stroke-width:0.5;" width="163" x="7" y="387.37"/><ellipse cx="58.25" cy="403.37" fill="#ADD1B2" rx="11" ry="11" style="stroke:#181818;stroke-width:1.0;"/><path d="M61.2188,409.0106 Q60.6406,409.3075 60,409.4481 Q59.3594,409.6044 58.6563,409.6044 Q56.1563,409.6044 54.8281,407.9638 Q53.5156,406.3075 53.5156,403.1825 Q53.5156,400.0575 54.8281,398.4013 Q56.1563,396.745 58.6563,396.745 Q59.3594,396.745 60,396.9013 Q60.6563,397.0575 61.2188,397.3544 L61.2188,400.0731 Q60.5938,399.495 60,399.2294 Q59.4063,398.9481 58.7813,398.9481 Q57.4375,398.9481 56.75,400.0263 Q56.0625,401.0888 56.0625,403.1825 Q56.0625,405.2763 56.75,406.3544 Q57.4375,407.4169 58.7813,407.4169 Q59.4063,407.4169 60,407.1513 Q60.5938,406.87 61.2188,406.2919 L61.2188,409.0106 Z " fill="#000000"/><text fill="#000000" font-family="sans-serif" font-size="14" lengthAdjust="spacing" textLength="52" x="78.75" y="408.2167">Facture</text><line style="stroke:#181818;stroke-width:0.5;" x1="8" x2="169" y1="419.37" y2="419.37"/><ellipse cx="18" cy="433.0184" fill="none" rx="3" ry="3" style="stroke:#038048;stroke-width:1.0;"/><text fill="#000000" font-family="sans-serif" font-size="14" lengthAdjust="spacing" textLength="40" x="27" y="436.3651">ID: int</text><ellipse cx="18" cy="449.3153" fill="none" rx="3" ry="3" style="stroke:#038048;stroke-width:1.0;"/><text fill="#000000" font-family="sans-serif" font-size="14" lengthAdjust="spacing" textLength="120" x="27" y="452.662">CommandeID: int</text><ellipse cx="18" cy="465.6122" fill="none" rx="3" ry="3" style="stroke:#038048;stroke-width:1.0;"/><text fill="#000000" font-family="sans-serif" font-size="14" lengthAdjust="spacing" textLength="137" x="27" y="468.9589">DateEmission: Date</text><ellipse cx="18" cy="481.9091" fill="none" rx="3" ry="3" style="stroke:#038048;stroke-width:1.0;"/><text fill="#000000" font-family="sans-serif" font-size="14" lengthAdjust="spacing" textLength="129" x="27" y="485.2557">MontantTotal: float</text><line style="stroke:#181818;stroke-width:0.5;" x1="8" x2="169" y1="492.5575" y2="492.5575"/></g><!--class Fournisseur--><g id="elem_Fournisseur"><rect codeLine="34" fill="#F1F1F1" height="113.1875" id="Fournisseur" rx="2.5" ry="2.5" style="stroke:#181818;stroke-width:0.5;" width="131" x="391" y="387.37"/><ellipse cx="413.65" cy="403.37" fill="#ADD1B2" rx="11" ry="11" style="stroke:#181818;stroke-width:1.0;"/><path d="M416.6188,409.0106 Q416.0406,409.3075 415.4,409.4481 Q414.7594,409.6044 414.0563,409.6044 Q411.5563,409.6044 410.2281,407.9638 Q408.9156,406.3075 408.9156,403.1825 Q408.9156,400.0575 410.2281,398.4013 Q411.5563,396.745 414.0563,396.745 Q414.7594,396.745 415.4,396.9013 Q416.0563,397.0575 416.6188,397.3544 L416.6188,400.0731 Q415.9938,399.495 415.4,399.2294 Q414.8063,398.9481 414.1813,398.9481 Q412.8375,398.9481 412.15,400.0263 Q411.4625,401.0888 411.4625,403.1825 Q411.4625,405.2763 412.15,406.3544 Q412.8375,407.4169 414.1813,407.4169 Q414.8063,407.4169 415.4,407.1513 Q415.9938,406.87 416.6188,406.2919 L416.6188,409.0106 Z " fill="#000000"/><text fill="#000000" font-family="sans-serif" font-size="14" lengthAdjust="spacing" textLength="82" x="429.35" y="408.2167">Fournisseur</text><line style="stroke:#181818;stroke-width:0.5;" x1="392" x2="521" y1="419.37" y2="419.37"/><ellipse cx="402" cy="433.0184" fill="none" rx="3" ry="3" style="stroke:#038048;stroke-width:1.0;"/><text fill="#000000" font-family="sans-serif" font-size="14" lengthAdjust="spacing" textLength="40" x="411" y="436.3651">ID: int</text><ellipse cx="402" cy="449.3153" fill="none" rx="3" ry="3" style="stroke:#038048;stroke-width:1.0;"/><text fill="#000000" font-family="sans-serif" font-size="14" lengthAdjust="spacing" textLength="80" x="411" y="452.662">Nom: string</text><ellipse cx="402" cy="465.6122" fill="none" rx="3" ry="3" style="stroke:#038048;stroke-width:1.0;"/><text fill="#000000" font-family="sans-serif" font-size="14" lengthAdjust="spacing" textLength="102" x="411" y="468.9589">Contact: string</text><ellipse cx="402" cy="481.9091" fill="none" rx="3" ry="3" style="stroke:#038048;stroke-width:1.0;"/><text fill="#000000" font-family="sans-serif" font-size="14" lengthAdjust="spacing" textLength="105" x="411" y="485.2557">Adresse: string</text><line style="stroke:#181818;stroke-width:0.5;" x1="392" x2="521" y1="492.5575" y2="492.5575"/></g><!--link Utilisateur to Commande--><g id="link_Utilisateur_Commande"><path codeLine="41" d="M161.5,120.54 C161.5,147.41 161.5,179.28 161.5,204.99 " fill="none" id="Utilisateur-Commande" style="stroke:#181818;stroke-width:1.0;"/><text fill="#000000" font-family="sans-serif" font-size="13" lengthAdjust="spacing" textLength="38" x="162.5" y="163.2469">passe</text><text fill="#000000" font-family="sans-serif" font-size="13" lengthAdjust="spacing" textLength="8" x="153.0375" y="140.0662">1</text><text fill="#000000" font-family="sans-serif" font-size="13" lengthAdjust="spacing" textLength="23" x="136.8828" y="194.1511">0..*</text></g><!--link Commande to D?tailCommande--><g id="link_Commande_D&#233;tailCommande"><path codeLine="42" d="M191.53,302.27 C209.5,330.69 232.27,366.69 250.27,395.17 " fill="none" id="Commande-D&#233;tailCommande" style="stroke:#181818;stroke-width:1.0;"/><text fill="#000000" font-family="sans-serif" font-size="13" lengthAdjust="spacing" textLength="52" x="225.5" y="353.4369">contient</text><text fill="#000000" font-family="sans-serif" font-size="13" lengthAdjust="spacing" textLength="8" x="187.1905" y="322.2205">1</text><text fill="#000000" font-family="sans-serif" font-size="13" lengthAdjust="spacing" textLength="23" x="221.4017" y="384.3297">0..*</text></g><!--link Produit to D?tailCommande--><g id="link_Produit_D&#233;tailCommande"><path codeLine="43" d="M326.88,310.73 C317.45,337.6 306.28,369.47 297.26,395.18 " fill="none" id="Produit-D&#233;tailCommande" style="stroke:#181818;stroke-width:1.0;"/><text fill="#000000" font-family="sans-serif" font-size="13" lengthAdjust="spacing" textLength="88" x="315.5" y="353.4369">apparait dans</text><text fill="#000000" font-family="sans-serif" font-size="13" lengthAdjust="spacing" textLength="8" x="316.1489" y="330.2573">1</text><text fill="#000000" font-family="sans-serif" font-size="13" lengthAdjust="spacing" textLength="23" x="274.9997" y="384.3411">0..*</text></g><!--link Commande to Facture--><g id="link_Commande_Facture"><path codeLine="44" d="M132.45,302.63 C125.92,314.66 119.47,327.75 114.5,340.37 C108.68,355.16 103.82,371.67 99.94,387.05 " fill="none" id="Commande-Facture" style="stroke:#181818;stroke-width:1.0;"/><text fill="#000000" font-family="sans-serif" font-size="13" lengthAdjust="spacing" textLength="45" x="115.5" y="353.4369">g&#233;n&#232;re</text><text fill="#000000" font-family="sans-serif" font-size="13" lengthAdjust="spacing" textLength="8" x="120.0089" y="322.2785">1</text><text fill="#000000" font-family="sans-serif" font-size="13" lengthAdjust="spacing" textLength="8" x="92.8468" y="376.2746">1</text></g><!--link Produit to Fournisseur--><g id="link_Produit_Fournisseur"><path codeLine="45" d="M392.61,310.46 C399.7,320.15 406.61,330.34 412.5,340.37 C421.04,354.91 428.86,371.42 435.45,386.87 " fill="none" id="Produit-Fournisseur" style="stroke:#181818;stroke-width:1.0;"/><text fill="#000000" font-family="sans-serif" font-size="13" lengthAdjust="spacing" textLength="61" x="421.5" y="353.4369">fourni par</text><text fill="#000000" font-family="sans-serif" font-size="13" lengthAdjust="spacing" textLength="23" x="373.8281" y="330.3577">0..*</text><text fill="#000000" font-family="sans-serif" font-size="13" lengthAdjust="spacing" textLength="8" x="424.5536" y="376.4759">1</text></g><!--SRC=[ZPBFQeH03CRlFaNmsB9BUvrRMNUXXoqMsWS8Ebq2EYCp4GgbxrEVmnThrFfdNA7hGSbdvfVaosG5UW_lJ0LvP5qx-8f0dlldH04P7e8NMohmxCXS1k5O8XMXTBQSw5HeUjA_eoZh-QcpUKry6plHFdDKCLaJ_aWTVIhuA2poZ3xOiaIJwqrs8YCfwDv3l9Xpp9j0ITkm3BNcZN70_Pidq5vhD4pSDYlk2JEktNP_c_2ktMD9tlS6pCsVhM4fyMOPYoiRJhPsHixSlC53Hyiu59zofrSBN5wD-366tGxYX_t-BfwTLr1rQuyc8SnR6wiWazgafRNnNlnt0AiA7KfYZiPVrv7FwBA2IzkOziVf6JvGnyI5KU9Y7qd_xXS0]--></g></svg>