<?xml version="1.0" encoding="us-ascii" standalone="no"?><svg xmlns="http://www.w3.org/2000/svg" xmlns:xlink="http://www.w3.org/1999/xlink" contentStyleType="text/css" height="531px" preserveAspectRatio="none" style="width:1429px;height:531px;background:#FFFFFF;" version="1.1" viewBox="0 0 1429 531" width="1429px" zoomAndPan="magnify"><defs/><g><rect fill="#FFFFFF" height="320.4609" style="stroke:#181818;stroke-width:1.0;" width="10" x="296" y="112.4297"/><rect fill="#FFFFFF" height="262.1953" style="stroke:#181818;stroke-width:1.0;" width="10" x="713" y="141.5625"/><rect fill="#FFFFFF" height="87.3984" style="stroke:#181818;stroke-width:1.0;" width="10" x="964" y="287.2266"/><rect fill="#FFFFFF" height="29.1328" style="stroke:#181818;stroke-width:1.0;" width="10" x="1356" y="316.3594"/><line style="stroke:#181818;stroke-width:0.5;stroke-dasharray:5.0,5.0;" x1="42" x2="42" y1="81.2969" y2="450.8906"/><line style="stroke:#181818;stroke-width:0.5;stroke-dasharray:5.0,5.0;" x1="301" x2="301" y1="81.2969" y2="450.8906"/><line style="stroke:#181818;stroke-width:0.5;stroke-dasharray:5.0,5.0;" x1="717.5" x2="717.5" y1="81.2969" y2="450.8906"/><line style="stroke:#181818;stroke-width:0.5;stroke-dasharray:5.0,5.0;" x1="968.5" x2="968.5" y1="81.2969" y2="450.8906"/><line style="stroke:#181818;stroke-width:0.5;stroke-dasharray:5.0,5.0;" x1="1360.5" x2="1360.5" y1="81.2969" y2="450.8906"/><text fill="#000000" font-family="sans-serif" font-size="14" lengthAdjust="spacing" textLength="68" x="5" y="77.9951">Utilisateur</text><ellipse cx="42" cy="13.5" fill="#E2E2F0" rx="8" ry="8" style="stroke:#181818;stroke-width:0.5;"/><path d="M42,21.5 L42,48.5 M29,29.5 L55,29.5 M42,48.5 L29,63.5 M42,48.5 L55,63.5 " fill="none" style="stroke:#181818;stroke-width:0.5;"/><text fill="#000000" font-family="sans-serif" font-size="14" lengthAdjust="spacing" textLength="68" x="5" y="462.8857">Utilisateur</text><ellipse cx="42" cy="474.6875" fill="#E2E2F0" rx="8" ry="8" style="stroke:#181818;stroke-width:0.5;"/><path d="M42,482.6875 L42,509.6875 M29,490.6875 L55,490.6875 M42,509.6875 L29,524.6875 M42,509.6875 L55,524.6875 " fill="none" style="stroke:#181818;stroke-width:0.5;"/><rect fill="#E2E2F0" height="30.2969" rx="2.5" ry="2.5" style="stroke:#181818;stroke-width:0.5;" width="146" x="228" y="50"/><text fill="#000000" font-family="sans-serif" font-size="14" lengthAdjust="spacing" textLength="132" x="235" y="69.9951">Interface Utilisateur</text><rect fill="#E2E2F0" height="30.2969" rx="2.5" ry="2.5" style="stroke:#181818;stroke-width:0.5;" width="146" x="228" y="449.8906"/><text fill="#000000" font-family="sans-serif" font-size="14" lengthAdjust="spacing" textLength="132" x="235" y="469.8857">Interface Utilisateur</text><rect fill="#E2E2F0" height="30.2969" rx="2.5" ry="2.5" style="stroke:#181818;stroke-width:0.5;" width="87" x="674.5" y="50"/><text fill="#000000" font-family="sans-serif" font-size="14" lengthAdjust="spacing" textLength="73" x="681.5" y="69.9951">Contr&#244;leur</text><rect fill="#E2E2F0" height="30.2969" rx="2.5" ry="2.5" style="stroke:#181818;stroke-width:0.5;" width="87" x="674.5" y="449.8906"/><text fill="#000000" font-family="sans-serif" font-size="14" lengthAdjust="spacing" textLength="73" x="681.5" y="469.8857">Contr&#244;leur</text><rect fill="#E2E2F0" height="30.2969" rx="2.5" ry="2.5" style="stroke:#181818;stroke-width:0.5;" width="65" x="936.5" y="50"/><text fill="#000000" font-family="sans-serif" font-size="14" lengthAdjust="spacing" textLength="51" x="943.5" y="69.9951">Mod&#232;le</text><rect fill="#E2E2F0" height="30.2969" rx="2.5" ry="2.5" style="stroke:#181818;stroke-width:0.5;" width="65" x="936.5" y="449.8906"/><text fill="#000000" font-family="sans-serif" font-size="14" lengthAdjust="spacing" textLength="51" x="943.5" y="469.8857">Mod&#232;le</text><text fill="#000000" font-family="sans-serif" font-size="14" lengthAdjust="spacing" textLength="129" x="1293.5" y="77.9951">Base_de_donn&#233;es</text><path d="M1343,29 C1343,19 1361,19 1361,19 C1361,19 1379,19 1379,29 L1379,55 C1379,65 1361,65 1361,65 C1361,65 1343,65 1343,55 L1343,29 " fill="#E2E2F0" style="stroke:#181818;stroke-width:1.5;"/><path d="M1343,29 C1343,39 1361,39 1361,39 C1361,39 1379,39 1379,29 " fill="none" style="stroke:#181818;stroke-width:1.5;"/><text fill="#000000" font-family="sans-serif" font-size="14" lengthAdjust="spacing" textLength="129" x="1293.5" y="462.8857">Base_de_donn&#233;es</text><path d="M1343,476.1875 C1343,466.1875 1361,466.1875 1361,466.1875 C1361,466.1875 1379,466.1875 1379,476.1875 L1379,502.1875 C1379,512.1875 1361,512.1875 1361,512.1875 C1361,512.1875 1343,512.1875 1343,502.1875 L1343,476.1875 " fill="#E2E2F0" style="stroke:#181818;stroke-width:1.5;"/><path d="M1343,476.1875 C1343,486.1875 1361,486.1875 1361,486.1875 C1361,486.1875 1379,486.1875 1379,476.1875 " fill="none" style="stroke:#181818;stroke-width:1.5;"/><rect fill="#FFFFFF" height="320.4609" style="stroke:#181818;stroke-width:1.0;" width="10" x="296" y="112.4297"/><rect fill="#FFFFFF" height="262.1953" style="stroke:#181818;stroke-width:1.0;" width="10" x="713" y="141.5625"/><rect fill="#FFFFFF" height="87.3984" style="stroke:#181818;stroke-width:1.0;" width="10" x="964" y="287.2266"/><rect fill="#FFFFFF" height="29.1328" style="stroke:#181818;stroke-width:1.0;" width="10" x="1356" y="316.3594"/><polygon fill="#181818" points="284,108.4297,294,112.4297,284,116.4297,288,112.4297" style="stroke:#181818;stroke-width:1.0;"/><line style="stroke:#181818;stroke-width:1.0;" x1="42" x2="290" y1="112.4297" y2="112.4297"/><text fill="#000000" font-family="sans-serif" font-size="13" lengthAdjust="spacing" textLength="223" x="49" y="107.3638">S&#233;lectionne l'option d'ajout d'achat</text><polygon fill="#181818" points="701,137.5625,711,141.5625,701,145.5625,705,141.5625" style="stroke:#181818;stroke-width:1.0;"/><line style="stroke:#181818;stroke-width:1.0;" x1="306" x2="707" y1="141.5625" y2="141.5625"/><text fill="#000000" font-family="sans-serif" font-size="13" lengthAdjust="spacing" textLength="151" x="313" y="136.4966">Requ&#234;te d'ajout d'achat</text><polygon fill="#181818" points="317,166.6953,307,170.6953,317,174.6953,313,170.6953" style="stroke:#181818;stroke-width:1.0;"/><line style="stroke:#181818;stroke-width:1.0;" x1="311" x2="712" y1="170.6953" y2="170.6953"/><text fill="#000000" font-family="sans-serif" font-size="13" lengthAdjust="spacing" textLength="225" x="323" y="165.6294">Affiche le formulaire d'ajout d'achat</text><polygon fill="#181818" points="53,195.8281,43,199.8281,53,203.8281,49,199.8281" style="stroke:#181818;stroke-width:1.0;"/><line style="stroke:#181818;stroke-width:1.0;" x1="47" x2="295" y1="199.8281" y2="199.8281"/><text fill="#000000" font-family="sans-serif" font-size="13" lengthAdjust="spacing" textLength="182" x="59" y="194.7622">Remplit les d&#233;tails de l'achat</text><polygon fill="#181818" points="284,224.9609,294,228.9609,284,232.9609,288,228.9609" style="stroke:#181818;stroke-width:1.0;"/><line style="stroke:#181818;stroke-width:1.0;" x1="42" x2="290" y1="228.9609" y2="228.9609"/><text fill="#000000" font-family="sans-serif" font-size="13" lengthAdjust="spacing" textLength="135" x="49" y="223.895">Soumet le formulaire</text><polygon fill="#181818" points="701,254.0938,711,258.0938,701,262.0938,705,258.0938" style="stroke:#181818;stroke-width:1.0;"/><line style="stroke:#181818;stroke-width:1.0;" x1="306" x2="707" y1="258.0938" y2="258.0938"/><text fill="#000000" font-family="sans-serif" font-size="13" lengthAdjust="spacing" textLength="189" x="313" y="253.0278">Envoie les donn&#233;es de l'achat</text><polygon fill="#181818" points="952,283.2266,962,287.2266,952,291.2266,956,287.2266" style="stroke:#181818;stroke-width:1.0;"/><line style="stroke:#181818;stroke-width:1.0;" x1="723" x2="958" y1="287.2266" y2="287.2266"/><text fill="#000000" font-family="sans-serif" font-size="13" lengthAdjust="spacing" textLength="171" x="730" y="282.1606">Cr&#233;ation d'un nouvel achat</text><polygon fill="#181818" points="1344,312.3594,1354,316.3594,1344,320.3594,1348,316.3594" style="stroke:#181818;stroke-width:1.0;"/><line style="stroke:#181818;stroke-width:1.0;" x1="974" x2="1350" y1="316.3594" y2="316.3594"/><text fill="#000000" font-family="sans-serif" font-size="13" lengthAdjust="spacing" textLength="363" x="981" y="311.2935">Enregistre les d&#233;tails de l'achat dans la base de donn&#233;es</text><polygon fill="#181818" points="985,341.4922,975,345.4922,985,349.4922,981,345.4922" style="stroke:#181818;stroke-width:1.0;"/><line style="stroke:#181818;stroke-width:1.0;stroke-dasharray:2.0,2.0;" x1="979" x2="1360" y1="345.4922" y2="345.4922"/><text fill="#000000" font-family="sans-serif" font-size="13" lengthAdjust="spacing" textLength="167" x="991" y="340.4263">Confirme l'enregistrement</text><polygon fill="#181818" points="734,370.625,724,374.625,734,378.625,730,374.625" style="stroke:#181818;stroke-width:1.0;"/><line style="stroke:#181818;stroke-width:1.0;stroke-dasharray:2.0,2.0;" x1="728" x2="968" y1="374.625" y2="374.625"/><text fill="#000000" font-family="sans-serif" font-size="13" lengthAdjust="spacing" textLength="217" x="740" y="369.5591">Retourne le r&#233;sultat de l'op&#233;ration</text><polygon fill="#181818" points="317,399.7578,307,403.7578,317,407.7578,313,403.7578" style="stroke:#181818;stroke-width:1.0;"/><line style="stroke:#181818;stroke-width:1.0;stroke-dasharray:2.0,2.0;" x1="311" x2="717" y1="403.7578" y2="403.7578"/><text fill="#000000" font-family="sans-serif" font-size="13" lengthAdjust="spacing" textLength="383" x="323" y="398.6919">Redirige vers la page principale avec un message de succ&#232;s</text><polygon fill="#181818" points="53,428.8906,43,432.8906,53,436.8906,49,432.8906" style="stroke:#181818;stroke-width:1.0;"/><line style="stroke:#181818;stroke-width:1.0;stroke-dasharray:2.0,2.0;" x1="47" x2="300" y1="432.8906" y2="432.8906"/><text fill="#000000" font-family="sans-serif" font-size="13" lengthAdjust="spacing" textLength="230" x="59" y="427.8247">Affiche un message de confirmation</text><!--SRC=[TL8nSjmm3Epr2emRL_x05Pd9-L9SaSQUgpC81TdCKAG2WdgJbJe_uCS2KYSVpnVFQ2HGN2ns0Q2Hm70Iwsn4eSI04KwHk9kGnHexeHUuEteX7j1G2xshsECryZ5uuVpNRVVr79pxoFWzzFdDKSLeJAxhKV0dHeAzldxq-WJlyqAnG0xxhYkouE6Bbjp1SruS6R4A8N3tOIeXzFVuAoGfN_EAqg4YPjLQL9wE9VSYPmTFz3lbFthxQLeZ_X9k4huEWpMlMfrW23mcXvPlkTQoHNefE4xEYcP4wFCYQ9q6HVyPsneCQIIv9l-FXsz-3fPMngrT3UErwjhd7JnoNl3Sh-J1XpIJWm_MrvdKTqazx4ijfXSRXUap1z2ZZ-0GwXpr_wRfmgk3FEpXeL4J_61vB1pqNc0aBrrFRTPPoiqC9IJsTGfgAoOdHSQw4tdXwhDbMdsrVJat_8bwo_Q5O2Qk7YRKmyJMbvLLUfp9WFPhf1ZBbHQ9oPZy5bl-PcNAjDvdlstBDO5PpT-eF1t_0G00]--></g></svg>