<?xml version="1.0" encoding="us-ascii" standalone="no"?><svg xmlns="http://www.w3.org/2000/svg" xmlns:xlink="http://www.w3.org/1999/xlink" contentStyleType="text/css" height="415px" preserveAspectRatio="none" style="width:787px;height:415px;background:#FFFFFF;" version="1.1" viewBox="0 0 787 415" width="787px" zoomAndPan="magnify"><defs/><g><rect fill="#FFFFFF" height="203.9297" style="stroke:#181818;stroke-width:1.0;" width="10" x="184" y="112.4297"/><rect fill="#FFFFFF" height="145.6641" style="stroke:#181818;stroke-width:1.0;" width="10" x="368" y="141.5625"/><rect fill="#FFFFFF" height="87.3984" style="stroke:#181818;stroke-width:1.0;" width="10" x="541" y="170.6953"/><rect fill="#FFFFFF" height="29.1328" style="stroke:#181818;stroke-width:1.0;" width="10" x="714" y="199.8281"/><line style="stroke:#181818;stroke-width:0.5;stroke-dasharray:5.0,5.0;" x1="42" x2="42" y1="81.2969" y2="334.3594"/><line style="stroke:#181818;stroke-width:0.5;stroke-dasharray:5.0,5.0;" x1="189" x2="189" y1="81.2969" y2="334.3594"/><line style="stroke:#181818;stroke-width:0.5;stroke-dasharray:5.0,5.0;" x1="372.5" x2="372.5" y1="81.2969" y2="334.3594"/><line style="stroke:#181818;stroke-width:0.5;stroke-dasharray:5.0,5.0;" x1="545.5" x2="545.5" y1="81.2969" y2="334.3594"/><line style="stroke:#181818;stroke-width:0.5;stroke-dasharray:5.0,5.0;" x1="718.5" x2="718.5" y1="81.2969" y2="334.3594"/><text fill="#000000" font-family="sans-serif" font-size="14" lengthAdjust="spacing" textLength="68" x="5" y="77.9951">Utilisateur</text><ellipse cx="42" cy="13.5" fill="#E2E2F0" rx="8" ry="8" style="stroke:#181818;stroke-width:0.5;"/><path d="M42,21.5 L42,48.5 M29,29.5 L55,29.5 M42,48.5 L29,63.5 M42,48.5 L55,63.5 " fill="none" style="stroke:#181818;stroke-width:0.5;"/><text fill="#000000" font-family="sans-serif" font-size="14" lengthAdjust="spacing" textLength="68" x="5" y="346.3545">Utilisateur</text><ellipse cx="42" cy="358.1563" fill="#E2E2F0" rx="8" ry="8" style="stroke:#181818;stroke-width:0.5;"/><path d="M42,366.1563 L42,393.1563 M29,374.1563 L55,374.1563 M42,393.1563 L29,408.1563 M42,393.1563 L55,408.1563 " fill="none" style="stroke:#181818;stroke-width:0.5;"/><rect fill="#E2E2F0" height="30.2969" rx="2.5" ry="2.5" style="stroke:#181818;stroke-width:0.5;" width="146" x="116" y="50"/><text fill="#000000" font-family="sans-serif" font-size="14" lengthAdjust="spacing" textLength="132" x="123" y="69.9951">Interface Utilisateur</text><rect fill="#E2E2F0" height="30.2969" rx="2.5" ry="2.5" style="stroke:#181818;stroke-width:0.5;" width="146" x="116" y="333.3594"/><text fill="#000000" font-family="sans-serif" font-size="14" lengthAdjust="spacing" textLength="132" x="123" y="353.3545">Interface Utilisateur</text><rect fill="#E2E2F0" height="30.2969" rx="2.5" ry="2.5" style="stroke:#181818;stroke-width:0.5;" width="87" x="329.5" y="50"/><text fill="#000000" font-family="sans-serif" font-size="14" lengthAdjust="spacing" textLength="73" x="336.5" y="69.9951">Contr&#244;leur</text><rect fill="#E2E2F0" height="30.2969" rx="2.5" ry="2.5" style="stroke:#181818;stroke-width:0.5;" width="87" x="329.5" y="333.3594"/><text fill="#000000" font-family="sans-serif" font-size="14" lengthAdjust="spacing" textLength="73" x="336.5" y="353.3545">Contr&#244;leur</text><rect fill="#E2E2F0" height="30.2969" rx="2.5" ry="2.5" style="stroke:#181818;stroke-width:0.5;" width="65" x="513.5" y="50"/><text fill="#000000" font-family="sans-serif" font-size="14" lengthAdjust="spacing" textLength="51" x="520.5" y="69.9951">Mod&#232;le</text><rect fill="#E2E2F0" height="30.2969" rx="2.5" ry="2.5" style="stroke:#181818;stroke-width:0.5;" width="65" x="513.5" y="333.3594"/><text fill="#000000" font-family="sans-serif" font-size="14" lengthAdjust="spacing" textLength="51" x="520.5" y="353.3545">Mod&#232;le</text><text fill="#000000" font-family="sans-serif" font-size="14" lengthAdjust="spacing" textLength="129" x="651.5" y="77.9951">Base_de_donn&#233;es</text><path d="M701,29 C701,19 719,19 719,19 C719,19 737,19 737,29 L737,55 C737,65 719,65 719,65 C719,65 701,65 701,55 L701,29 " fill="#E2E2F0" style="stroke:#181818;stroke-width:1.5;"/><path d="M701,29 C701,39 719,39 719,39 C719,39 737,39 737,29 " fill="none" style="stroke:#181818;stroke-width:1.5;"/><text fill="#000000" font-family="sans-serif" font-size="14" lengthAdjust="spacing" textLength="129" x="651.5" y="346.3545">Base_de_donn&#233;es</text><path d="M701,359.6563 C701,349.6563 719,349.6563 719,349.6563 C719,349.6563 737,349.6563 737,359.6563 L737,385.6563 C737,395.6563 719,395.6563 719,395.6563 C719,395.6563 701,395.6563 701,385.6563 L701,359.6563 " fill="#E2E2F0" style="stroke:#181818;stroke-width:1.5;"/><path d="M701,359.6563 C701,369.6563 719,369.6563 719,369.6563 C719,369.6563 737,369.6563 737,359.6563 " fill="none" style="stroke:#181818;stroke-width:1.5;"/><rect fill="#FFFFFF" height="203.9297" style="stroke:#181818;stroke-width:1.0;" width="10" x="184" y="112.4297"/><rect fill="#FFFFFF" height="145.6641" style="stroke:#181818;stroke-width:1.0;" width="10" x="368" y="141.5625"/><rect fill="#FFFFFF" height="87.3984" style="stroke:#181818;stroke-width:1.0;" width="10" x="541" y="170.6953"/><rect fill="#FFFFFF" height="29.1328" style="stroke:#181818;stroke-width:1.0;" width="10" x="714" y="199.8281"/><polygon fill="#181818" points="172,108.4297,182,112.4297,172,116.4297,176,112.4297" style="stroke:#181818;stroke-width:1.0;"/><line style="stroke:#181818;stroke-width:1.0;" x1="42" x2="178" y1="112.4297" y2="112.4297"/><text fill="#000000" font-family="sans-serif" font-size="13" lengthAdjust="spacing" textLength="123" x="49" y="107.3638">Effectue une action</text><polygon fill="#181818" points="356,137.5625,366,141.5625,356,145.5625,360,141.5625" style="stroke:#181818;stroke-width:1.0;"/><line style="stroke:#181818;stroke-width:1.0;" x1="194" x2="362" y1="141.5625" y2="141.5625"/><text fill="#000000" font-family="sans-serif" font-size="13" lengthAdjust="spacing" textLength="155" x="201" y="136.4966">Demande de traitement</text><polygon fill="#181818" points="529,166.6953,539,170.6953,529,174.6953,533,170.6953" style="stroke:#181818;stroke-width:1.0;"/><line style="stroke:#181818;stroke-width:1.0;" x1="378" x2="535" y1="170.6953" y2="170.6953"/><text fill="#000000" font-family="sans-serif" font-size="13" lengthAdjust="spacing" textLength="142" x="385" y="165.6294">Demande de donn&#233;es</text><polygon fill="#181818" points="702,195.8281,712,199.8281,702,203.8281,706,199.8281" style="stroke:#181818;stroke-width:1.0;"/><line style="stroke:#181818;stroke-width:1.0;" x1="551" x2="708" y1="199.8281" y2="199.8281"/><text fill="#000000" font-family="sans-serif" font-size="13" lengthAdjust="spacing" textLength="132" x="558" y="194.7622">Requ&#234;te de donn&#233;es</text><polygon fill="#181818" points="562,224.9609,552,228.9609,562,232.9609,558,228.9609" style="stroke:#181818;stroke-width:1.0;"/><line style="stroke:#181818;stroke-width:1.0;stroke-dasharray:2.0,2.0;" x1="556" x2="718" y1="228.9609" y2="228.9609"/><text fill="#000000" font-family="sans-serif" font-size="13" lengthAdjust="spacing" textLength="139" x="568" y="223.895">Retourne les donn&#233;es</text><polygon fill="#181818" points="389,254.0938,379,258.0938,389,262.0938,385,258.0938" style="stroke:#181818;stroke-width:1.0;"/><line style="stroke:#181818;stroke-width:1.0;stroke-dasharray:2.0,2.0;" x1="383" x2="545" y1="258.0938" y2="258.0938"/><text fill="#000000" font-family="sans-serif" font-size="13" lengthAdjust="spacing" textLength="139" x="395" y="253.0278">Retourne les donn&#233;es</text><polygon fill="#181818" points="205,283.2266,195,287.2266,205,291.2266,201,287.2266" style="stroke:#181818;stroke-width:1.0;"/><line style="stroke:#181818;stroke-width:1.0;stroke-dasharray:2.0,2.0;" x1="199" x2="372" y1="287.2266" y2="287.2266"/><text fill="#000000" font-family="sans-serif" font-size="13" lengthAdjust="spacing" textLength="126" x="211" y="282.1606">Retourne le r&#233;sultat</text><polygon fill="#181818" points="53,312.3594,43,316.3594,53,320.3594,49,316.3594" style="stroke:#181818;stroke-width:1.0;"/><line style="stroke:#181818;stroke-width:1.0;stroke-dasharray:2.0,2.0;" x1="47" x2="188" y1="316.3594" y2="316.3594"/><text fill="#000000" font-family="sans-serif" font-size="13" lengthAdjust="spacing" textLength="111" x="59" y="311.2935">Affiche le r&#233;sultat</text><!--SRC=[XP0zRWCX48NxFSN8lI-mHQHiDiKMQInj7KrWK90mE33aJ77gt82B1R0Ti2Kh4k97l6_clK71piFAskY0JD431bW3-U60dhNG1xGCcyKoUOM2UkccQfThvPEpxDEFkVpNjpFcjkABa-dBKDNaEvb18kCR1e8fRwyoBsTjEb8eadaQXc8BjW-vvGZFIf7WI10j0GhMpWxb-CpEYgTrAShMV8IPzcWbGLxiKJFjoN9ZEf_jMcfKSrVunLU3Jm7gNf1v6c577p5zynqWnvadsBRoEs8NVSvYSju_lQIUEDU_oVKlUJBNXphFi2F1fsE8Xf5xifj9cMV1Gcdvg9GMx_UvTVa5]--></g></svg>