<?xml version="1.0" encoding="us-ascii" standalone="no"?><svg xmlns="http://www.w3.org/2000/svg" xmlns:xlink="http://www.w3.org/1999/xlink" contentStyleType="text/css" height="398px" preserveAspectRatio="none" style="width:586px;height:398px;background:#FFFFFF;" version="1.1" viewBox="0 0 586 398" width="586px" zoomAndPan="magnify"><defs/><g><!--cluster Syst?me de Gestion de Commandes--><g id="cluster_Syst&#232;me de Gestion de Commandes"><rect fill="none" height="385" rx="2.5" ry="2.5" style="stroke:#181818;stroke-width:1.0;" width="485.15" x="95" y="7"/><text fill="#000000" font-family="sans-serif" font-size="14" font-weight="bold" lengthAdjust="spacing" textLength="286" x="194.575" y="21.9951">Syst&#232;me de Gestion de Commandes</text></g><g id="elem_Se connecter"><ellipse cx="181.0634" cy="210.0027" fill="#F1F1F1" rx="70.0634" ry="16.4127" style="stroke:#181818;stroke-width:0.5;"/><text fill="#000000" font-family="sans-serif" font-size="14" lengthAdjust="spacing" textLength="93" x="131.5634" y="213.7502">Se connecter</text></g><g id="elem_G&#233;rer les produits"><ellipse cx="469.138" cy="356.9976" fill="#F1F1F1" rx="82.288" ry="18.8576" style="stroke:#181818;stroke-width:0.5;"/><text fill="#000000" font-family="sans-serif" font-size="14" lengthAdjust="spacing" textLength="124" x="406.3005" y="360.1238">G&#233;rer les produits</text></g><g id="elem_G&#233;rer les utilisateurs"><ellipse cx="469.1444" cy="283.0029" fill="#F1F1F1" rx="90.1144" ry="20.4229" style="stroke:#181818;stroke-width:0.5;"/><text fill="#000000" font-family="sans-serif" font-size="14" lengthAdjust="spacing" textLength="142" x="398.1444" y="285.8496">G&#233;rer les utilisateurs</text></g><g id="elem_G&#233;rer les ventes"><ellipse cx="469.1351" cy="210.001" fill="#F1F1F1" rx="78.1551" ry="18.031" style="stroke:#181818;stroke-width:0.5;"/><text fill="#000000" font-family="sans-serif" font-size="14" lengthAdjust="spacing" textLength="114" x="409.7459" y="213.5866">G&#233;rer les ventes</text></g><g id="elem_G&#233;rer les factures"><ellipse cx="469.1358" cy="138.0032" fill="#F1F1F1" rx="81.8658" ry="18.7732" style="stroke:#181818;stroke-width:0.5;"/><text fill="#000000" font-family="sans-serif" font-size="14" lengthAdjust="spacing" textLength="123" x="406.6505" y="141.1763">G&#233;rer les factures</text></g><g id="elem_G&#233;rer les fournisseurs"><ellipse cx="469.1418" cy="63.0024" fill="#F1F1F1" rx="95.0118" ry="21.4024" style="stroke:#181818;stroke-width:0.5;"/><text fill="#000000" font-family="sans-serif" font-size="14" lengthAdjust="spacing" textLength="153" x="392.6418" y="65.849">G&#233;rer les fournisseurs</text></g><!--entity Admin--><g id="elem_Admin"><ellipse cx="27.5" cy="180.35" fill="#F1F1F1" rx="8" ry="8" style="stroke:#181818;stroke-width:0.5;"/><path d="M27.5,188.35 L27.5,215.35 M14.5,196.35 L40.5,196.35 M27.5,215.35 L14.5,230.35 M27.5,215.35 L40.5,230.35 " fill="none" style="stroke:#181818;stroke-width:0.5;"/><text fill="#000000" font-family="sans-serif" font-size="14" lengthAdjust="spacing" textLength="43" x="6" y="244.8451">Admin</text></g><!--link Admin to Se connecter--><g id="link_Admin_Se connecter"><path d="M49.26,210 C65.23,210 82.27,210 104.59,210 " fill="none" id="Admin-to-Se connecter" style="stroke:#181818;stroke-width:1.0;"/><polygon fill="#181818" points="110.59,210,101.59,206,105.59,210,101.59,214,110.59,210" style="stroke:#181818;stroke-width:1.0;"/></g><!--reverse link Se connecter to G?rer les produits--><g id="link_Se connecter_G&#233;rer les produits"><path d="M218.6289,236.2437 C238.3389,250.2037 253.67,260.31 281.13,276 C320.99,298.78 331.98,302.77 374.13,321 C390.17,327.94 408.02,334.95 423.83,340.92 " fill="none" id="Se connecter-backto-G&#233;rer les produits" style="stroke:#181818;stroke-width:1.0;"/><polygon fill="none" points="203.94,225.84,215.161,241.14,222.0968,231.3474,203.94,225.84" style="stroke:#181818;stroke-width:1.0;"/><text fill="#000000" font-family="sans-serif" font-size="13" lengthAdjust="spacing" textLength="61" x="282.13" y="272.0669">&#171;include&#187;</text></g><!--reverse link Se connecter to G?rer les utilisateurs--><g id="link_Se connecter_G&#233;rer les utilisateurs"><path d="M247.0618,226.5878 C296.0018,239.0678 354.93,254.11 408.02,267.66 " fill="none" id="Se connecter-backto-G&#233;rer les utilisateurs" style="stroke:#181818;stroke-width:1.0;"/><polygon fill="none" points="229.62,222.14,245.5792,232.4017,248.5444,220.7738,229.62,222.14" style="stroke:#181818;stroke-width:1.0;"/><text fill="#000000" font-family="sans-serif" font-size="13" lengthAdjust="spacing" textLength="61" x="282.13" y="232.0669">&#171;include&#187;</text></g><!--reverse link Se connecter to G?rer les ventes--><g id="link_Se connecter_G&#233;rer les ventes"><path d="M269.31,210 C311.4,210 347.22,210 390.71,210 " fill="none" id="Se connecter-backto-G&#233;rer les ventes" style="stroke:#181818;stroke-width:1.0;"/><polygon fill="none" points="251.31,210,269.31,216,269.31,204,251.31,210" style="stroke:#181818;stroke-width:1.0;"/><text fill="#000000" font-family="sans-serif" font-size="13" lengthAdjust="spacing" textLength="61" x="282.13" y="206.0669">&#171;include&#187;</text></g><!--reverse link Se connecter to G?rer les factures--><g id="link_Se connecter_G&#233;rer les factures"><path d="M247.383,193.5065 C263.633,189.4065 264.44,189.2 281.13,185 C325.28,173.88 375.3,161.31 412.49,151.97 " fill="none" id="Se connecter-backto-G&#233;rer les factures" style="stroke:#181818;stroke-width:1.0;"/><polygon fill="none" points="229.93,197.91,248.8509,199.3241,245.9152,187.6888,229.93,197.91" style="stroke:#181818;stroke-width:1.0;"/><text fill="#000000" font-family="sans-serif" font-size="13" lengthAdjust="spacing" textLength="61" x="282.13" y="166.0669">&#171;include&#187;</text></g><!--reverse link Se connecter to G?rer les fournisseurs--><g id="link_Se connecter_G&#233;rer les fournisseurs"><path d="M219.0327,183.7227 C238.7327,169.9227 253.79,160.18 281.13,145 C320.94,122.89 332.42,120.28 374.13,102 C389.5,95.26 406.41,88.15 421.6,81.88 " fill="none" id="Se connecter-backto-G&#233;rer les fournisseurs" style="stroke:#181818;stroke-width:1.0;"/><polygon fill="none" points="204.29,194.05,222.4751,188.6369,215.5902,178.8084,204.29,194.05" style="stroke:#181818;stroke-width:1.0;"/><text fill="#000000" font-family="sans-serif" font-size="13" lengthAdjust="spacing" textLength="61" x="282.13" y="112.0669">&#171;include&#187;</text></g><!--SRC=[dP112i9034NtFSMdAxle1QGKn4KFq1EKJgo1QKOo6K7K- -WvUZ7RxWGNqYm-uIVl4-BfPB00vU5iSApK6mV9kjw2uk16bYnRp4u6JyZRMxJfDH8SeQ6ux2xjCOnZ9uvYZdk6kLOIPLbZrnBw839da1RhS9Ll7zMZBB5hfhUImbF4HODBRB707bN5qllagAx_OfEnvzWP9Tt4NqcCDf6d-N59Dx8XgN2Clwv-VW00]--></g></svg>